<svg xmlns="http://www.w3.org/2000/svg" x="0px" y="0px" viewBox="0 0 100 100">
    <ellipse rx="50" ry="50" cx="50" cy="50" fill="#f6f5f3"></ellipse>
    <g id="ticks">
        <rect width="2.5" height="5" x="48.75" y="9" transform="rotate(330 50 50)" fill="#c5c5c4"></rect>
        <rect width="2.5" height="5" x="48.75" y="9" transform="rotate(300 50 50)" fill="#c5c5c4"></rect>
        <rect width="2.5" height="5" x="48.75" y="9" transform="rotate(270 50 50)" fill="#c5c5c4"></rect>
        <rect width="2.5" height="5" x="48.75" y="9" transform="rotate(240 50 50)" fill="#c5c5c4"></rect>
        <rect width="2.5" height="5" x="48.75" y="9" transform="rotate(210 50 50)" fill="#c5c5c4"></rect>
        <rect width="2.5" height="5" x="48.75" y="9" transform="rotate(180 50 50)" fill="#c5c5c4"></rect>
        <rect width="2.5" height="5" x="48.75" y="9" transform="rotate(150 50 50)" fill="#c5c5c4"></rect>
        <rect width="2.5" height="5" x="48.75" y="9" transform="rotate(120 50 50)" fill="#c5c5c4"></rect>
        <rect width="2.5" height="5" x="48.75" y="9" transform="rotate(90 50 50)" fill="#c5c5c4"></rect>
        <rect width="2.5" height="5" x="48.75" y="9" transform="rotate(60 50 50)" fill="#c5c5c4"></rect>
        <rect width="2.5" height="5" x="48.75" y="9" transform="rotate(30 50 50)" fill="#c5c5c4"></rect>
        <rect width="2.5" height="5" x="48.75" y="9" fill="#c5c5c4"></rect>
    </g>
    <ellipse id="SvgjsEllipse1021" rx="3.75" ry="3.75" cx="50" cy="50" class="arrow" fill="#212121"></ellipse>
</svg>
